<svg width="180" height="180" viewBox="0 0 180 180" fill="none" xmlns="http://www.w3.org/2000/svg">
<g clip-path="url(#clip0_285_52)">
<circle cx="90" cy="90" r="90" fill="#732689"/>
<path d="M79.9904 144.1C71.2904 144.1 63.0404 143.05 55.2404 140.95C47.4404 138.85 41.0904 136.15 36.1904 132.85L47.8904 110.65C53.1904 114.05 58.8404 116.65 64.8404 118.45C70.8404 120.15 76.8404 121 82.8404 121C88.5404 121 92.9404 120.2 96.0404 118.6C99.2404 116.9 100.84 114.6 100.84 111.7C100.84 109.2 99.3904 107.25 96.4904 105.85C93.6904 104.45 89.2904 102.95 83.2904 101.35C76.4904 99.55 70.8404 97.75 66.3404 95.95C61.8404 94.05 57.9404 91.2 54.6404 87.4C51.4404 83.6 49.8404 78.6 49.8404 72.4C49.8404 64.9 51.8904 58.35 55.9904 52.75C60.0904 47.05 65.9404 42.65 73.5404 39.55C81.1404 36.45 90.0404 34.9 100.24 34.9C107.74 34.9 114.74 35.7 121.24 37.3C127.74 38.8 133.34 41 138.04 43.9L127.24 65.95C123.14 63.35 118.59 61.4 113.59 60.1C108.69 58.7 103.64 58 98.4404 58C92.5404 58 87.8904 58.95 84.4904 60.85C81.1904 62.75 79.5404 65.2 79.5404 68.2C79.5404 70.8 80.9904 72.8 83.8904 74.2C86.7904 75.6 91.2904 77.1 97.3904 78.7C104.19 80.4 109.79 82.15 114.19 83.95C118.69 85.75 122.54 88.5 125.74 92.2C128.94 95.9 130.54 100.75 130.54 106.75C130.54 114.15 128.44 120.7 124.24 126.4C120.14 132 114.24 136.35 106.54 139.45C98.9404 142.55 90.0904 144.1 79.9904 144.1Z" fill="white"/>
</g>
<defs>
<clipPath id="clip0_285_52">
<rect width="180" height="180" fill="white"/>
</clipPath>
</defs>
</svg>
