<svg width="180" height="180" viewBox="0 0 180 180" fill="none" xmlns="http://www.w3.org/2000/svg">
<circle cx="90" cy="90" r="82" fill="#732689"/>
<path d="M82.6248 123.44C78.9048 123.44 75.3348 123.17 71.9148 122.63C68.4948 122.09 65.3748 121.34 62.5548 120.38C59.7948 119.36 57.3948 118.25 55.3548 117.05L63.5448 101.39C65.8848 102.71 68.2248 103.82 70.5648 104.72C72.9648 105.56 75.3348 106.19 77.6748 106.61C80.0748 107.03 82.4448 107.24 84.7848 107.24C86.6448 107.24 88.1748 107.09 89.3748 106.79C90.6348 106.49 91.5648 106.07 92.1648 105.53C92.8248 104.93 93.1548 104.27 93.1548 103.55C93.1548 102.59 92.6148 101.81 91.5348 101.21C90.4548 100.61 89.0148 100.07 87.2148 99.59C85.4748 99.11 83.5248 98.63 81.3648 98.15C79.2648 97.61 77.1348 96.95 74.9748 96.17C72.8148 95.33 70.8348 94.28 69.0348 93.02C67.2948 91.76 65.8848 90.17 64.8048 88.25C63.7248 86.33 63.1848 83.99 63.1848 81.23C63.1848 76.43 64.4448 72.26 66.9648 68.72C69.5448 65.18 73.2048 62.45 77.9448 60.53C82.7448 58.55 88.4448 57.56 95.0448 57.56C99.7248 57.56 104.075 58.04 108.095 59C112.175 59.9 115.685 61.22 118.625 62.96L110.975 78.44C108.455 76.88 105.695 75.71 102.695 74.93C99.7548 74.15 96.7548 73.76 93.6948 73.76C91.6548 73.76 89.9448 73.97 88.5648 74.39C87.1848 74.75 86.1348 75.26 85.4148 75.92C84.7548 76.58 84.4248 77.27 84.4248 77.99C84.4248 78.95 84.9648 79.76 86.0448 80.42C87.1248 81.02 88.5648 81.56 90.3648 82.04C92.1648 82.46 94.1148 82.94 96.2148 83.48C98.3748 83.96 100.505 84.59 102.605 85.37C104.765 86.09 106.745 87.08 108.545 88.34C110.345 89.54 111.785 91.1 112.865 93.02C113.945 94.88 114.485 97.19 114.485 99.95C114.485 104.63 113.195 108.74 110.615 112.28C108.035 115.76 104.345 118.49 99.5448 120.47C94.8048 122.45 89.1648 123.44 82.6248 123.44Z" fill="white"/>
<path d="M59.9965 73.56L57.8365 84.3L29.2165 93.48L30.4165 87.6L55.3165 96.78L53.3965 106.44L25.0165 95.34L27.1765 84.66L59.9965 73.56Z" fill="white"/>
<path d="M118.326 106.44L120.486 95.7L149.106 86.52L147.906 92.4L123.006 83.22L124.926 73.56L153.306 84.66L151.146 95.34L118.326 106.44Z" fill="white"/>
</svg>
